External Loads File
version=1
nRows=39
nColumns=13
Range=5.000000e-03-10 seconds
endheader
time 	forceRightX 	forceRightY 	forceRightZ 	pointRightX 	pointRightY 	pointRightZ 	forceLeftX 	forceLeftY 	forceLeftZ 	pointLeftX 	pointLeftY 	pointLeftZ 		
0.005000 -1.460596 86.537682 -0.000000 0.434469 0.340392 -0.132827 75.254152 116.117915 -0.000000 0.121170 0.310837 -0.378064
0.010000 -1.501398 87.439157 -0.000000 0.434473 0.340265 -0.132839 75.202181 116.938499 -0.000000 0.121161 0.310951 -0.378052
0.015000 -1.535770 88.334664 -0.000000 0.434491 0.340150 -0.132859 75.213377 117.675696 -0.000000 0.121161 0.311101 -0.378068
0.020000 -1.565761 89.197979 -0.000000 0.434499 0.339997 -0.132865 75.302151 118.299611 -0.000000 0.121142 0.311201 -0.378047
0.025000 -1.502919 90.009997 -0.000000 0.434498 0.339725 -0.132793 75.515154 118.754517 -0.000000 0.121105 0.311354 -0.378079
0.030000 -1.393754 90.760820 -0.000000 0.434503 0.339561 -0.132804 75.702000 119.110950 -0.000000 0.121077 0.311503 -0.378005
0.035000 -1.228572 91.447692 -0.000000 0.434490 0.339450 -0.132819 75.860406 119.372641 -0.000000 0.121064 0.311669 -0.377994
0.040000 -1.054458 92.065131 -0.000000 0.434482 0.339314 -0.132824 76.012801 119.567922 -0.000000 0.121046 0.311810 -0.377986
0.045000 -0.961737 92.607913 -0.000000 0.434458 0.339191 -0.132818 76.170642 119.751625 -0.000000 0.121035 0.311938 -0.377974
0.050000 -1.008296 93.079019 -0.000000 0.434448 0.339054 -0.132830 76.357194 119.952971 -0.000000 0.121022 0.312053 -0.377982
0.055000 -1.213791 93.492155 -0.000000 0.434440 0.338933 -0.132816 76.568236 120.177540 -0.000000 0.121012 0.312207 -0.377971
0.060000 -1.555400 93.868767 -0.000000 0.434438 0.338794 -0.132822 76.771446 120.413231 -0.000000 0.121001 0.312344 -0.377977
0.065000 -1.968957 94.227448 -0.000000 0.434440 0.338663 -0.132831 76.942138 120.631845 -0.000000 0.120991 0.312487 -0.377983
0.070000 -2.389231 94.573309 -0.000000 0.434456 0.338502 -0.132818 77.079269 120.804050 -0.000000 0.120975 0.312622 -0.377987
0.075000 -2.793473 94.898585 -0.000000 0.434455 0.338358 -0.132815 77.185470 120.925472 -0.000000 0.120965 0.312777 -0.377976
0.080000 -3.165792 95.191235 -0.000000 0.434497 0.338230 -0.132849 77.287346 121.003017 -0.000000 0.120956 0.312928 -0.377978
0.085000 -3.466693 95.443510 -0.000000 0.434483 0.338103 -0.132844 77.435129 121.042270 -0.000000 0.120951 0.313121 -0.377957
0.090000 -3.681870 95.655370 -0.000000 0.434496 0.337940 -0.132809 77.620810 121.081428 -0.000000 0.120951 0.313279 -0.377946
0.095000 -3.797279 95.833602 -0.000000 0.434484 0.337776 -0.132784 77.818955 121.150738 -0.000000 0.120948 0.313434 -0.377939
0.100000 -3.797603 95.987137 -0.000000 0.434467 0.337551 -0.132775 78.021357 121.246123 -0.000000 0.120942 0.313582 -0.377963
0.105000 -3.746712 96.122477 -0.000000 0.434474 0.337406 -0.132762 78.157605 121.389183 -0.000000 0.120948 0.313723 -0.377963
0.110000 -3.655229 96.248570 -0.000000 0.434472 0.337250 -0.132768 78.259297 121.533808 -0.000000 0.120966 0.313861 -0.377968
0.115000 -3.557910 96.369797 -0.000000 0.434476 0.337082 -0.132767 78.338172 121.648944 -0.000000 0.120976 0.314012 -0.377978
0.120000 -3.511225 96.484216 -0.000000 0.434459 0.336965 -0.132772 78.351958 121.744393 -0.000000 0.120983 0.314147 -0.377992
0.125000 -3.485541 96.590792 -0.000000 0.434470 0.336809 -0.132796 78.336356 121.797124 -0.000000 0.120996 0.314279 -0.378009
0.130000 -3.486647 96.685552 -0.000000 0.434484 0.336666 -0.132803 78.290950 121.827503 -0.000000 0.121002 0.314429 -0.377977
0.135000 -3.503053 96.761062 -0.000000 0.434488 0.336505 -0.132797 78.248144 121.837594 -0.000000 0.121014 0.314586 -0.377980
0.140000 -3.525768 96.807940 -0.000000 0.434497 0.336370 -0.132809 78.206103 121.841706 -0.000000 0.121017 0.314749 -0.377956
0.145000 -3.496993 96.823002 -0.000000 0.434564 0.336210 -0.133085 78.190390 121.834272 -0.000000 0.121027 0.314915 -0.377958
0.150000 -3.405491 96.806339 -0.000000 0.434552 0.336077 -0.133082 78.173771 121.846260 -0.000000 0.121044 0.315047 -0.377950
0.155000 -3.214095 96.756345 -0.000000 0.434562 0.335924 -0.133050 78.192943 121.858671 -0.000000 0.121072 0.315170 -0.377955
0.160000 -2.944001 96.664869 -0.000000 0.434471 0.335799 -0.132891 78.227600 121.865395 -0.000000 0.121083 0.315328 -0.377950
0.165000 -2.620073 96.529096 -0.000000 0.434464 0.335657 -0.132884 78.245437 121.844186 -0.000000 0.121098 0.315476 -0.377949
0.170000 -2.274104 96.358622 -0.000000 0.434582 0.335520 -0.133024 78.211265 121.768421 -0.000000 0.121116 0.315625 -0.377954
0.175000 -1.931984 96.170983 -0.000000 0.434577 0.335324 -0.132988 78.121541 121.606143 -0.000000 0.121143 0.315753 -0.377957
0.180000 -1.649893 95.982096 -0.000000 0.434571 0.335201 -0.133001 77.950133 121.367159 -0.000000 0.121151 0.315896 -0.377943
0.185000 -1.431633 95.804247 -0.000000 0.434566 0.335043 -0.132974 77.751057 121.038034 -0.000000 0.121171 0.316020 -0.377932
0.190000 -1.320850 95.645419 -0.000000 0.434554 0.334929 -0.132963 77.537404 120.647579 -0.000000 0.121176 0.316145 -0.377923
0.195000 -1.316986 95.510731 -0.000000 0.434576 0.334799 -0.132970 77.353243 120.201959 -0.000000 0.121196 0.316274 -0.377902
